<?xml version="1.0"?>
<svg xmlns="http://www.w3.org/2000/svg" xmlns:xlink="http://www.w3.org/1999/xlink" version="1.1" id="Capa_1" x="0px" y="0px" viewBox="0 0 446.575 446.575" style="enable-background:new 0 0 446.575 446.575;" xml:space="preserve" width="512px" height="512px" class=""><g><g>
	<g>
		<path d="M446.4,316.088v-75.2c0-11.2-3.201-22.4-8-32l-46.4-81.6c-4.801-9.6-16-16-27.199-16h-72    c-11.201,0-20.801,9.6-20.801,20.8v203.2h17.6c8-27.2,32-48,62.4-48c25.6,0,46.4,14.4,56,35.2c4.801,8,11.199,12.8,19.199,12.8    C438.4,335.288,448,325.688,446.4,316.088z M432,314.488c0,3.2-1.6,4.8-3.199,4.8c-3.201,0-4.801-1.6-4.801-3.2    c-14.4-27.2-41.6-44.8-72-44.8c-25.6,0-49.6,12.8-64,32h-1.6v-171.2c0-3.2,3.199-4.8,4.799-4.8h73.602    c6.398,0,11.199,3.2,14.398,6.4l46.401,81.6c4.8,8,6.4,16,6.4,24V314.488z" data-original="#000000" class="active-path" data-old_color="#000000" fill="#39B54A"/>
	</g>
</g><g>
	<g>
		<path d="M224,47.288H0v288h48c8-27.2,32-48,62.4-48c30.4,0,56,20.8,62.4,48H256v-256C256,61.688,241.6,47.288,224,47.288z     M240,319.288h-54.4c-12.799-28.8-41.6-48-73.6-48s-60.801,19.2-73.6,48H16v-256h208c9.6,0,16,6.4,16,16V319.288z" data-original="#000000" class="active-path" data-old_color="#000000" fill="#39B54A"/>
	</g>
</g><g>
	<g>
		<path d="M352,303.288c-27.199,0-48,20.8-48,48s20.801,48,48,48c27.199,0,48-20.8,48-48S379.199,303.288,352,303.288z M352,383.288    c-17.6,0-32-14.4-32-32c0-17.6,14.4-32,32-32c17.6,0,32,14.4,32,32C384,368.888,369.6,383.288,352,383.288z" data-original="#000000" class="active-path" data-old_color="#000000" fill="#39B54A"/>
	</g>
</g><g>
	<g>
		<path d="M112,303.288c-25.6,0-48,20.8-48,48s20.801,48,48,48s48-20.8,48-48S139.199,303.288,112,303.288z M112,383.288    c-17.6,0-32-14.4-32-32c0-17.6,14.4-32,32-32c17.6,0,32,14.4,32,32C144,368.888,129.6,383.288,112,383.288z" data-original="#000000" class="active-path" data-old_color="#000000" fill="#39B54A"/>
	</g>
</g><g>
	<g>
		<path d="M364.801,143.288H304v80h107.199L364.801,143.288z M320,159.288h36.801l27.199,48h-64V159.288z" data-original="#000000" class="active-path" data-old_color="#000000" fill="#39B54A"/>
	</g>
</g><g>
	<g>
		<circle cx="112" cy="351.288" r="12" data-original="#000000" class="active-path" data-old_color="#000000" fill="#39B54A"/>
	</g>
</g><g>
	<g>
		<circle cx="352" cy="351.288" r="12" data-original="#000000" class="active-path" data-old_color="#000000" fill="#39B54A"/>
	</g>
</g></g> </svg>
